<svg xmlns="http://www.w3.org/2000/svg" xmlns:xlink="http://www.w3.org/1999/xlink" viewBox="0 0 334.59 482.75"><defs><linearGradient id="Degradado_sin_nombre_9" x1="198.58" y1="87.62" x2="198.58" y2="497.68" gradientUnits="userSpaceOnUse"><stop offset="0.22" stop-color="#fcb3d7"/><stop offset="1" stop-color="#78edff"/></linearGradient></defs><title>LOGOTIPO_MIXED_BLANCO</title><g id="cresta"><path d="M229.3,486.05c15.56,1.34,31.76-.84,46.2-7.9,16.38-8,30.5-22.26,36.06-39,6-18,2.06-38.83-5.61-56.72-16.63-38.75-51-63.59-84.15-90.39-20.5-16.57-40.54-33.89-51.12-56.72-12.6-27.19-11.79-62.18.21-90.92,5.49-13.14,13.32-25,23.73-34.14a89.81,89.81,0,0,1,26-15.71c-20,2.24-36.51,7.31-49.78,16.57-15.24,10.65-26.24,26.82-34,44.36-8.13,18.43-12.67,38.38-23.92,54.6a87.68,87.68,0,0,1-30.2,26.69c10.35-2.87,21-4.84,30.49-10,9-4.89,16.92-12.65,24.69-19.26-12.54,16.57-21.77,36.61-23.27,57.84-1.52,21.45,4.84,44.1,16.29,60.83,9,13.18,21.19,22.67,34.57,35.57C177.15,373,189.75,386.8,185.75,400c-1.23,4-4,8-7,11.3,10.62-1.7,22.7-6.43,29.36-15.38,7.15-9.59,8-24.05,4.62-36-5.11-17.86-19.88-30.06-34-40,25.17,13.37,46.72,32,67.48,52.52,13.57,13.38,26.8,27.53,31.91,45.87,3.94,14.16,3,30.8-4.66,42.88C264.45,475.33,246,483.2,229.3,486.05Z" transform="translate(-82.7 -7.29)" fill="url(#Degradado_sin_nombre_9)"/></g><g id="cuerpo"><path d="M229.3,486.05c15.56,1.34,31.76-.84,46.2-7.9,16.38-8,30.5-22.26,36.06-39,6-18,2.06-38.83-5.61-56.72-16.63-38.75-51-63.59-84.15-90.39-20.5-16.57-40.54-33.89-51.12-56.72-12.6-27.19-11.79-62.18.21-90.92,5.49-13.14,13.32-25,23.73-34.14a89.81,89.81,0,0,1,26-15.71l-.28,11.26A70.05,70.05,0,0,0,223,123.07c-.58-14.79,1.6-30.49,8.64-43.55,11-20.35,33.74-34.27,55.85-40.89,13.1,30,6.13,54.65.31,67.81L417.3,7.29,328.73,121.83c7.58,7.25,14.25,15.71,18.42,25.12,5,11.32,6.38,24,9,36.3a139.93,139.93,0,0,0,10,30.58,94.23,94.23,0,0,0,11.42,18.72c4.4,5.53,9.51,10.36,14.6,15.6a18.37,18.37,0,0,1,3.57,4.58c1.16,2.42,1.17,5.32,1.29,8.16.17,3.73.54,7.35-.14,10.87a19.55,19.55,0,0,1-3.58,8c-5.28,7-15.45,10.35-24.18,8.87L366,287.9c-.54,3.84-1.84,7.7-4.47,10.48-4.55,4.82-13.11,6.42-19.17,4.15-6.64-2.49-10.28-9.61-14.6-15.74A64.33,64.33,0,0,0,313,271.62c-10.08-7.32-22.38-11.34-34.34-16.74-11.21-5.06-22.12-11.33-29-20.89-7.27-10-10.16-23.68-10-36.2-5.67,38,23.59,70.73,44.94,93.25,17.35,18.29,29.48,29.82,39.18,43.43,14.66,20.57,23.77,45.91,23.27,71.8-.39,20.05-6.53,40.43-19.28,55.18s-32.38,24-52.19,27.26a109,109,0,0,1-46.2-2.66Z" transform="translate(-82.7 -7.29)" fill="#f8f8f8"/></g></svg>