<svg width="82" height="63" viewBox="0 0 82 63" fill="none" xmlns="http://www.w3.org/2000/svg">
<path d="M69.4618 5.27624C64.1538 2.81137 58.4782 1.02002 52.5446 0C51.8158 1.30762 50.9645 3.06641 50.3775 4.46551C44.0699 3.52404 37.8202 3.52404 31.6286 4.46551C31.0418 3.06641 30.1711 1.30762 29.4358 0C23.4958 1.02002 17.8137 2.81796 12.5057 5.28929C1.79936 21.3466 -1.10294 37.0051 0.348215 52.4412C7.44919 57.7042 14.3309 60.9014 21.0965 62.9935C22.7669 60.7117 24.2567 58.2862 25.5402 55.7298C23.0958 54.808 20.7546 53.6704 18.5425 52.3497C19.1294 51.9182 19.7034 51.467 20.258 51.0028C33.7505 57.2662 48.4104 57.2662 61.7417 51.0028C62.3028 51.467 62.8768 51.9182 63.4572 52.3497C61.2386 53.6768 58.891 54.8144 56.4466 55.7364C57.7301 58.2862 59.2135 60.7183 60.8903 63C67.6624 60.9079 74.5505 57.7108 81.6515 52.4412C83.3542 34.5468 78.7428 19.0321 69.4618 5.27624ZM27.3784 42.9481C23.328 42.9481 20.0065 39.1952 20.0065 34.6252C20.0065 30.0552 23.2571 26.2958 27.3784 26.2958C31.4997 26.2958 34.8212 30.0486 34.7502 34.6252C34.7566 39.1952 31.4997 42.9481 27.3784 42.9481ZM54.6214 42.9481C50.5711 42.9481 47.2495 39.1952 47.2495 34.6252C47.2495 30.0552 50.5 26.2958 54.6214 26.2958C58.7426 26.2958 62.0642 30.0486 61.9932 34.6252C61.9932 39.1952 58.7426 42.9481 54.6214 42.9481Z" fill="white"/>
</svg>
