<svg width="7" height="7" viewBox="0 0 7 7" fill="none" xmlns="http://www.w3.org/2000/svg">
<path d="M3.49999 0.630643C4.43454 0.630643 4.54523 0.6342 4.91429 0.651039C5.25553 0.666613 5.44086 0.723631 5.5642 0.771549C5.72756 0.835041 5.84416 0.910899 5.96663 1.03337C6.0891 1.15584 6.16496 1.27244 6.22844 1.4358C6.27637 1.55914 6.33339 1.74447 6.34896 2.0857C6.3658 2.45477 6.36936 2.56546 6.36936 3.50001C6.36936 4.43455 6.3658 4.54524 6.34896 4.9143C6.33339 5.25555 6.27637 5.44087 6.22844 5.56421C6.16496 5.72757 6.0891 5.84418 5.96663 5.96665C5.84416 6.08912 5.72756 6.16497 5.5642 6.22845C5.44086 6.27638 5.25553 6.3334 4.91429 6.34898C4.54528 6.36581 4.43459 6.36937 3.49999 6.36937C2.56539 6.36937 2.4547 6.36581 2.0857 6.34898C1.74445 6.3334 1.55913 6.27638 1.4358 6.22845C1.27243 6.16497 1.15582 6.08912 1.03335 5.96665C0.910885 5.84418 0.835027 5.72757 0.771549 5.56421C0.723617 5.44087 0.666599 5.25555 0.651025 4.91431C0.634186 4.54524 0.63063 4.43455 0.63063 3.50001C0.63063 2.56546 0.634186 2.45477 0.651025 2.08571C0.666599 1.74447 0.723617 1.55914 0.771549 1.4358C0.835027 1.27244 0.910885 1.15584 1.03335 1.03337C1.15582 0.910899 1.27243 0.835041 1.4358 0.771549C1.55913 0.723631 1.74445 0.666613 2.08569 0.651039C2.45476 0.6342 2.56545 0.630643 3.49999 0.630643ZM3.49999 0C2.54944 0 2.43027 0.00402905 2.05695 0.0210622C1.68441 0.0380676 1.42999 0.0972251 1.20735 0.183752C0.977197 0.273197 0.782011 0.392874 0.587435 0.587449C0.39286 0.782025 0.273183 0.977211 0.183739 1.20737C0.0972112 1.43001 0.0380537 1.68442 0.0210483 2.05697C0.00401516 2.43027 0 2.54946 0 3.50001C0 4.45056 0.00401516 4.56975 0.0210483 4.94305C0.0380537 5.31559 0.0972112 5.57001 0.183739 5.79265C0.273183 6.02279 0.39286 6.21799 0.587435 6.41256C0.782011 6.60714 0.977197 6.72682 1.20735 6.81626C1.42999 6.90279 1.68441 6.96195 2.05695 6.97895C2.43027 6.99599 2.54944 7 3.49999 7C4.45054 7 4.56973 6.99599 4.94303 6.97895C5.31558 6.96195 5.56999 6.90279 5.79263 6.81626C6.02279 6.72682 6.21798 6.60714 6.41255 6.41256C6.60713 6.21799 6.7268 6.0228 6.81625 5.79265C6.90277 5.57001 6.96193 5.31559 6.97894 4.94305C6.99597 4.56975 7 4.45056 7 3.50001C7 2.54946 6.99597 2.43027 6.97894 2.05697C6.96193 1.68442 6.90277 1.43001 6.81625 1.20737C6.7268 0.977211 6.60713 0.782025 6.41255 0.587449C6.21798 0.392874 6.02279 0.273197 5.79263 0.183752C5.56999 0.0972251 5.31558 0.0380676 4.94303 0.0210622C4.56973 0.00402905 4.45054 0 3.49999 0ZM3.49999 1.7027C2.50737 1.7027 1.70269 2.50739 1.70269 3.50001C1.70269 4.49263 2.50737 5.29731 3.49999 5.29731C4.49261 5.29731 5.2973 4.49263 5.2973 3.50001C5.2973 2.50739 4.49261 1.7027 3.49999 1.7027ZM3.49999 4.66668C2.85566 4.66668 2.33332 4.14434 2.33332 3.50001C2.33332 2.85568 2.85566 2.33333 3.49999 2.33333C4.14432 2.33333 4.66667 2.85568 4.66667 3.50001C4.66667 4.14434 4.14432 4.66668 3.49999 4.66668ZM5.7883 1.6317C5.7883 1.86366 5.60027 2.0517 5.3683 2.0517C5.13634 2.0517 4.9483 1.86366 4.9483 1.6317C4.9483 1.39973 5.13634 1.2117 5.3683 1.2117C5.60027 1.2117 5.7883 1.39973 5.7883 1.6317Z" fill="white"/>
</svg>
