<svg width="40" height="38" viewBox="0 0 40 38" fill="none" xmlns="http://www.w3.org/2000/svg">
<path d="M12.3177 35.2817L7.94159 36.1948C7.42272 36.3019 6.88229 36.2003 6.4386 35.9122C5.9949 35.6241 5.68408 35.1731 5.57415 34.6578L0.0419249 8.47621C-0.065918 7.96028 0.0362266 7.4229 0.326008 6.98165C0.615789 6.54041 1.06961 6.23124 1.58815 6.1218L15.1122 3.29839L13.8388 9.25098L7.51479 9.91369C7.06678 9.96994 6.65402 10.1843 6.35175 10.5178C6.04948 10.8513 5.87783 11.2817 5.86809 11.7304V26.7948C5.8773 27.2431 6.0491 27.673 6.35186 28.0055C6.65462 28.3379 7.06797 28.5504 7.51585 28.604L9.65209 28.812L9.27649 30.5799C9.06173 31.6035 9.26018 32.67 9.82906 33.5495C10.3979 34.429 11.2917 35.0511 12.3177 35.2817Z" fill="white"/>
<path d="M15.8329 9.03262L17.3875 1.76759C17.4853 1.32276 17.7327 0.924363 18.089 0.638128C18.4452 0.351894 18.8889 0.194927 19.347 0.193127C19.4852 0.192641 19.6231 0.207286 19.7581 0.236799L38.4175 4.18125C38.9354 4.2928 39.3879 4.60333 39.6764 5.04515C39.9648 5.48697 40.0659 6.02424 39.9576 6.53983L33.7056 35.7621C33.6083 36.207 33.3612 36.6056 33.0051 36.8919C32.649 37.1782 32.2052 37.3351 31.7471 37.3366C31.6064 37.3371 31.4661 37.3221 31.3287 37.2918L12.6745 33.3474C12.1564 33.2368 11.7033 32.9267 11.4147 32.4848C11.1261 32.0429 11.0253 31.5054 11.1345 30.9899L11.553 29.014L30.8171 30.9223C31.0261 30.947 31.2381 30.9269 31.4386 30.8632C31.6392 30.7996 31.8237 30.6939 31.9796 30.5534C32.1356 30.4128 32.2594 30.2406 32.3428 30.0484C32.4261 29.8563 32.467 29.6485 32.4626 29.4393V8.93692C32.4668 8.72812 32.4257 8.52088 32.3422 8.32925C32.2587 8.13762 32.1347 7.96609 31.9786 7.82631C31.8225 7.68653 31.638 7.58177 31.4376 7.51914C31.2372 7.45651 31.0255 7.43747 30.8171 7.46332L15.8329 9.03262Z" fill="white"/>
<path d="M26.8484 11.9271L9.37015 13.1646C9.07281 13.1903 8.79561 13.3247 8.59214 13.5417C8.38866 13.7588 8.27337 14.0431 8.26853 14.3397V24.5873C8.27317 24.8841 8.38838 25.1686 8.59187 25.3858C8.79537 25.603 9.07268 25.7375 9.37015 25.7632L26.8484 27.0039C26.9068 27.0101 26.9658 27.0101 27.0242 27.0039C27.2234 26.9876 27.4131 26.9124 27.569 26.7881C27.7248 26.6637 27.8397 26.4958 27.8987 26.306C27.9327 26.2055 27.9496 26.1001 27.9489 25.994V12.9473C27.9511 12.8064 27.9234 12.6666 27.8679 12.5369C27.8123 12.4073 27.7301 12.2906 27.6264 12.1945C27.5227 12.0984 27.3999 12.0249 27.2659 11.9789C27.1319 11.9328 26.9897 11.9152 26.8484 11.9271ZM13.3529 19.3283C13.3529 19.9034 12.9344 20.3744 12.4114 20.3744C11.8884 20.3744 11.4699 19.9033 11.4699 19.3283V16.8252C11.4699 16.2512 11.8883 15.7801 12.4114 15.7801C12.9345 15.7801 13.3529 16.2512 13.3529 16.8252V19.3283ZM23.5478 19.6403C23.5459 19.9167 23.4341 20.1812 23.2367 20.3761C23.0394 20.5709 22.7726 20.6802 22.4944 20.6802H22.4673C22.1903 20.6786 21.9251 20.5685 21.7293 20.3738C21.5335 20.1792 21.4227 19.9156 21.421 19.6403V16.5132C21.4216 16.237 21.5318 15.9722 21.7277 15.7763C21.9236 15.5804 22.1894 15.4693 22.4673 15.4671H22.4944C22.6333 15.4662 22.771 15.4927 22.8996 15.5448C23.0282 15.597 23.1451 15.6739 23.2438 15.7711C23.3424 15.8683 23.4208 15.9838 23.4744 16.1112C23.528 16.2386 23.5559 16.3752 23.5563 16.5132L23.5478 19.6403Z" fill="white"/>
</svg>
