<svg width="7" height="7" viewBox="0 0 7 7" fill="none" xmlns="http://www.w3.org/2000/svg">
<path d="M6.57202 1.7524C6.17226 1.7524 5.80261 1.6196 5.50689 1.39644C5.16737 1.14043 4.92231 0.763935 4.83605 0.331312C4.81415 0.224526 4.8032 0.113632 4.80183 0H3.65866L3.65729 4.83278C3.65729 5.29004 3.35884 5.67749 2.94675 5.81439C2.82628 5.8541 2.69758 5.87326 2.56342 5.86505C2.39092 5.85547 2.23073 5.80344 2.08972 5.71993C1.79127 5.54195 1.59002 5.21885 1.58454 4.84784C1.57632 4.2701 2.04317 3.79777 2.62092 3.79777C2.73455 3.79777 2.84407 3.81694 2.94675 3.84979V2.69157C2.8386 2.67514 2.72907 2.66693 2.61681 2.66693C1.9843 2.66693 1.39287 2.92979 0.969832 3.40348C0.650841 3.76081 0.459172 4.21807 0.429053 4.69724C0.390719 5.32564 0.620721 5.92392 1.06703 6.36476C1.13275 6.4291 1.2012 6.48934 1.27376 6.54547C1.65573 6.83982 2.12395 7 2.61681 7C2.7277 7 2.8386 6.99179 2.94675 6.97536C3.40676 6.9069 3.83117 6.69607 4.16658 6.36476C4.57867 5.95815 4.80594 5.41737 4.80867 4.84236L4.8032 2.2877C4.99897 2.43966 5.21391 2.56425 5.44529 2.66145C5.80398 2.81342 6.18458 2.88871 6.57476 2.88871V1.75103C6.57613 1.7524 6.57202 1.7524 6.57202 1.7524Z" fill="white"/>
</svg>
