<svg width="9" height="7" viewBox="0 0 9 7" fill="none" xmlns="http://www.w3.org/2000/svg">
<path d="M8.80674 0.828646C8.48981 0.969196 8.14923 1.06419 7.79176 1.10691C8.15664 0.888193 8.43682 0.541876 8.56877 0.129239C8.22734 0.33173 7.84913 0.478801 7.44661 0.558071C7.12424 0.214621 6.66497 0 6.15671 0C5.18074 0 4.38949 0.791217 4.38949 1.76712C4.38949 1.90563 4.40515 2.0405 4.43527 2.16984C2.96658 2.09614 1.66445 1.39261 0.792865 0.323475C0.640752 0.584473 0.553606 0.888036 0.553606 1.21189C0.553606 1.82497 0.865613 2.36587 1.33978 2.68276C1.05008 2.67359 0.777616 2.5941 0.539334 2.46174C0.539208 2.46911 0.539208 2.47652 0.539208 2.48395C0.539208 3.34017 1.14835 4.05442 1.95677 4.21674C1.80847 4.25713 1.65236 4.27871 1.49117 4.27871C1.37731 4.27871 1.26659 4.26765 1.15872 4.24701C1.38358 4.9491 2.0362 5.46 2.80949 5.47428C2.20469 5.94823 1.44271 6.23074 0.614791 6.23074C0.472162 6.23074 0.331487 6.22239 0.193237 6.20607C0.975286 6.70746 1.90419 7 2.90215 7C6.15259 7 7.93004 4.30725 7.93004 1.97204C7.93004 1.89542 7.92834 1.8192 7.92494 1.74343C8.27018 1.49428 8.56981 1.18303 8.80674 0.828646Z" fill="white"/>
</svg>
