<svg width="11" height="7" viewBox="0 0 11 7" fill="none" xmlns="http://www.w3.org/2000/svg">
<path d="M10.2588 1.09516C10.1459 0.666129 9.80723 0.327419 9.37819 0.208871C8.60481 4.03773e-08 5.49997 0 5.49997 0C5.49997 0 2.39513 4.03773e-08 1.6161 0.208871C1.18707 0.321774 0.854001 0.660484 0.735452 1.09516C0.532227 1.87419 0.532227 3.5 0.532227 3.5C0.532227 3.5 0.532227 5.12581 0.741098 5.90484C0.854001 6.33387 1.19271 6.67258 1.62174 6.79113C2.39513 7 5.49997 7 5.49997 7C5.49997 7 8.60481 7 9.38384 6.79113C9.81287 6.67823 10.1459 6.33952 10.2645 5.90484C10.4677 5.12581 10.4677 3.5 10.4677 3.5C10.4677 3.5 10.4677 1.87419 10.2588 1.09516ZM4.48384 4.97903V2.02097L7.08061 3.5L4.48384 4.97903Z" fill="white"/>
</svg>
